<svg xmlns="http://www.w3.org/2000/svg" width="97" height="97" viewBox="0 0 97 97">
  <g id="g-consumo" transform="translate(2661 -4669)">
    <path id="Caminho_2176" data-name="Caminho 2176" d="M21,0H76A21,21,0,0,1,97,21V76A21,21,0,0,1,76,97H21A21,21,0,0,1,0,76V21A21,21,0,0,1,21,0Z" transform="translate(-2661 4669)" fill="#354753"/>
    <g id="Grupo_1393" data-name="Grupo 1393" transform="translate(-1081.121 456.509)">
      <path id="Subtração_1" data-name="Subtração 1" d="M5.5,11A5.5,5.5,0,1,1,11,5.5,5.506,5.506,0,0,1,5.5,11Zm0-9.429A3.929,3.929,0,1,0,9.429,5.5,3.933,3.933,0,0,0,5.5,1.571Z" transform="translate(-1556.879 4262.491)" fill="#fff"/>
      <path id="Subtração_8" data-name="Subtração 8" d="M5.5,11A5.5,5.5,0,1,1,11,5.5,5.506,5.506,0,0,1,5.5,11Zm0-9.429A3.929,3.929,0,1,0,9.429,5.5,3.933,3.933,0,0,0,5.5,1.571Z" transform="translate(-1556.879 4262.491)" fill="#fff"/>
      <path id="Subtração_2" data-name="Subtração 2" d="M5.5,11A5.5,5.5,0,1,1,11,5.5,5.506,5.506,0,0,1,5.5,11Zm0-9.429A3.929,3.929,0,1,0,9.429,5.5,3.933,3.933,0,0,0,5.5,1.571Z" transform="translate(-1543.879 4248.491)" fill="#fff"/>
      <path id="Subtração_7" data-name="Subtração 7" d="M5.5,11A5.5,5.5,0,1,1,11,5.5,5.506,5.506,0,0,1,5.5,11Zm0-9.429A3.929,3.929,0,1,0,9.429,5.5,3.933,3.933,0,0,0,5.5,1.571Z" transform="translate(-1543.879 4248.491)" fill="#fff"/>
      <path id="Subtração_3" data-name="Subtração 3" d="M5.5,11A5.5,5.5,0,1,1,11,5.5,5.506,5.506,0,0,1,5.5,11Zm0-9.429A3.929,3.929,0,1,0,9.429,5.5,3.933,3.933,0,0,0,5.5,1.571Z" transform="translate(-1530.879 4262.491)" fill="#fff"/>
      <path id="Subtração_5" data-name="Subtração 5" d="M5.5,11A5.5,5.5,0,1,1,11,5.5,5.506,5.506,0,0,1,5.5,11Zm0-9.429A3.929,3.929,0,1,0,9.429,5.5,3.933,3.933,0,0,0,5.5,1.571Z" transform="translate(-1530.879 4262.491)" fill="#fff"/>
      <path id="Subtração_4" data-name="Subtração 4" d="M5.5,11A5.5,5.5,0,1,1,11,5.5,5.506,5.506,0,0,1,5.5,11Zm0-9.429A3.929,3.929,0,1,0,9.429,5.5,3.933,3.933,0,0,0,5.5,1.571Z" transform="translate(-1516.879 4248.491)" fill="#fff"/>
      <path id="Subtração_6" data-name="Subtração 6" d="M5.5,11A5.5,5.5,0,1,1,11,5.5,5.506,5.506,0,0,1,5.5,11Zm0-9.429A3.929,3.929,0,1,0,9.429,5.5,3.933,3.933,0,0,0,5.5,1.571Z" transform="translate(-1516.879 4248.491)" fill="#fff"/>
      <path id="Caminho_2159" data-name="Caminho 2159" d="M.192,0h9.842L10.2,2.57,0,2.488Z" transform="translate(-1549.6 4263.452) rotate(-45)" fill="#fff"/>
      <path id="Caminho_2168" data-name="Caminho 2168" d="M.192,0h9.842L10.2,2.57,0,2.488Z" transform="translate(-1549.6 4263.452) rotate(-45)" fill="#fff"/>
      <path id="Caminho_2160" data-name="Caminho 2160" d="M.206,0h10.6l.177,2.57L0,2.488Z" transform="translate(-1528.136 4265.173) rotate(-137)" fill="#fff"/>
      <path id="Caminho_2166" data-name="Caminho 2166" d="M.206,0h10.6l.177,2.57L0,2.488Z" transform="translate(-1528.136 4265.173) rotate(-137)" fill="#fff"/>
      <path id="Caminho_2161" data-name="Caminho 2161" d="M.206,0h10.6l.177,2.57L0,2.488Z" transform="matrix(0.695, -0.719, 0.719, 0.695, -1521.919, 4263.545)" fill="#fff"/>
      <path id="Caminho_2164" data-name="Caminho 2164" d="M.206,0h10.6l.177,2.57L0,2.488Z" transform="matrix(0.695, -0.719, 0.719, 0.695, -1521.919, 4263.545)" fill="#fff"/>
      <path id="Caminho_2162" data-name="Caminho 2162" d="M.975,0a.783.783,0,0,1,.783.783L1.566,4.456A.783.783,0,1,1,0,4.456L.192.783A.783.783,0,0,1,.975,0Z" transform="translate(-1539.018 4261.908) rotate(45)" fill="#fff"/>
      <path id="Caminho_2167" data-name="Caminho 2167" d="M.975,0a.783.783,0,0,1,.783.783L1.566,4.456A.783.783,0,1,1,0,4.456L.192.783A.783.783,0,0,1,.975,0Z" transform="translate(-1539.018 4261.908) rotate(45)" fill="#fff"/>
      <path id="Caminho_2163" data-name="Caminho 2163" d="M.975,0a.783.783,0,0,1,.783.783L1.566,4.456A.783.783,0,1,1,0,4.456L.192.783A.783.783,0,0,1,.975,0Z" transform="translate(-1520.223 4254.076) rotate(45)" fill="#fff"/>
      <path id="Caminho_2165" data-name="Caminho 2165" d="M.975,0a.783.783,0,0,1,.783.783L1.566,4.456A.783.783,0,1,1,0,4.456L.192.783A.783.783,0,0,1,.975,0Z" transform="translate(-1520.223 4254.076) rotate(45)" fill="#fff"/>
    </g>
  </g>
</svg>
