<svg xmlns="http://www.w3.org/2000/svg" width="97" height="97" viewBox="0 0 97 97">
  <g id="s-consumo" transform="translate(1825 -5187)">
    <rect id="Retângulo_116" data-name="Retângulo 116" width="97" height="97" rx="21" transform="translate(-1825 5187)" fill="#36c0f1"/>
    <g id="Grupo_1396" data-name="Grupo 1396" transform="translate(-163 962)">
      <g id="Retângulo_1974" data-name="Retângulo 1974" transform="translate(-1629 4248)" fill="none" stroke="#fff" stroke-width="2.5">
        <rect width="32" height="46" rx="3" stroke="none"/>
        <rect x="1.25" y="1.25" width="29.5" height="43.5" rx="1.75" fill="none"/>
      </g>
      <g id="Retângulo_1975" data-name="Retângulo 1975" transform="translate(-1629 4248)" fill="none" stroke="#fff" stroke-width="2">
        <path d="M3,0H29a3,3,0,0,1,3,3V19a0,0,0,0,1,0,0H0a0,0,0,0,1,0,0V3A3,3,0,0,1,3,0Z" stroke="none"/>
        <path d="M3,1H29a2,2,0,0,1,2,2V17a1,1,0,0,1-1,1H2a1,1,0,0,1-1-1V3A2,2,0,0,1,3,1Z" fill="none"/>
      </g>
      <circle id="Elipse_25" data-name="Elipse 25" cx="0.5" cy="0.5" r="0.5" transform="translate(-1603 4277)" fill="#fff"/>
      <rect id="Retângulo_1976" data-name="Retângulo 1976" width="1" height="10" rx="0.5" transform="translate(-1603 4281)" fill="#fff"/>
      <g id="Retângulo_1977" data-name="Retângulo 1977" transform="translate(-1625 4269)" fill="none" stroke="#fff" stroke-width="1.5">
        <path d="M1,0H9a1,1,0,0,1,1,1V4A2,2,0,0,1,8,6H2A2,2,0,0,1,0,4V1A1,1,0,0,1,1,0Z" stroke="none"/>
        <path d="M1,.75H9A.25.25,0,0,1,9.25,1V4A1.25,1.25,0,0,1,8,5.25H2A1.25,1.25,0,0,1,.75,4V1A.25.25,0,0,1,1,.75Z" fill="none"/>
      </g>
      <g id="Retângulo_1979" data-name="Retângulo 1979" transform="translate(-1608.223 4299.867) rotate(-90)" fill="none" stroke="#fff" stroke-width="1.5">
        <path d="M1,0H6.164a1,1,0,0,1,1,1V3.731a2,2,0,0,1-2,2H2a2,2,0,0,1-2-2V1A1,1,0,0,1,1,0Z" stroke="none"/>
        <path d="M1,.75H6.164a.25.25,0,0,1,.25.25V3.731a1.25,1.25,0,0,1-1.25,1.25H2A1.25,1.25,0,0,1,.75,3.731V1A.25.25,0,0,1,1,.75Z" fill="none"/>
      </g>
      <g id="Retângulo_1980" data-name="Retângulo 1980" transform="translate(-1623.985 4299.867) rotate(-90)" fill="none" stroke="#fff" stroke-width="1.5">
        <path d="M2,0H5.164a2,2,0,0,1,2,2V4.731a1,1,0,0,1-1,1H1a1,1,0,0,1-1-1V2A2,2,0,0,1,2,0Z" stroke="none"/>
        <path d="M2,.75H5.164A1.25,1.25,0,0,1,6.414,2V4.731a.25.25,0,0,1-.25.25H1a.25.25,0,0,1-.25-.25V2A1.25,1.25,0,0,1,2,.75Z" fill="none"/>
      </g>
      <g id="Retângulo_1978" data-name="Retângulo 1978" transform="translate(-1625 4256)" fill="none" stroke="#fff" stroke-width="1.5">
        <path d="M2,0H8a2,2,0,0,1,2,2V5A1,1,0,0,1,9,6H1A1,1,0,0,1,0,5V2A2,2,0,0,1,2,0Z" stroke="none"/>
        <path d="M2,.75H8A1.25,1.25,0,0,1,9.25,2V5A.25.25,0,0,1,9,5.25H1A.25.25,0,0,1,.75,5V2A1.25,1.25,0,0,1,2,.75Z" fill="none"/>
      </g>
    </g>
  </g>
</svg>
