<svg id="face-recognition" xmlns="http://www.w3.org/2000/svg" width="284.5" height="284.5" viewBox="0 0 284.5 284.5">
  <path id="Caminho_3" data-name="Caminho 3" d="M212.871,150.177a40.643,40.643,0,1,0-40.643-40.643,40.683,40.683,0,0,0,40.643,40.643Zm0-60.964a20.322,20.322,0,1,1-20.322,20.322,20.348,20.348,0,0,1,20.322-20.322Z" transform="translate(-70.621 -28.249)" fill="#606060"/>
  <path id="Caminho_4" data-name="Caminho 4" d="M20.322,20.322H81.286V0H10.161A10.155,10.155,0,0,0,0,10.161V81.286H20.322Z" transform="translate(0 0)" fill="#606060"/>
  <path id="Caminho_5" data-name="Caminho 5" d="M415.581,0H344.456V20.322H405.42V81.286h20.322V10.161A10.155,10.155,0,0,0,415.581,0Z" transform="translate(-141.242)" fill="#606060"/>
  <path id="Caminho_6" data-name="Caminho 6" d="M405.42,412.482H344.456V432.8h71.125a10.155,10.155,0,0,0,10.161-10.161V361.679H405.42Z" transform="translate(-141.242 -148.304)" fill="#606060"/>
  <path id="Caminho_7" data-name="Caminho 7" d="M20.322,344.456H0v71.125a10.155,10.155,0,0,0,10.161,10.161H81.286V405.42H20.322Z" transform="translate(0 -141.242)" fill="#606060"/>
  <path id="Caminho_8" data-name="Caminho 8" d="M122.587,253.491a30.792,30.792,0,0,0-19.25,28.408v40.544H265.908V281.9a30.79,30.79,0,0,0-19.25-28.408A162.844,162.844,0,0,0,122.587,253.491Zm123,28.408v20.222H123.658V281.9a10.533,10.533,0,0,1,6.708-9.635,142.526,142.526,0,0,1,108.513,0A10.533,10.533,0,0,1,245.587,281.9Z" transform="translate(-42.373 -98.907)" fill="#606060"/>
</svg>
