<svg xmlns="http://www.w3.org/2000/svg" width="25.699" height="37.987" viewBox="0 0 25.699 37.987">
  <g id="icon-avfenergia" transform="translate(2321 -4557)">
    <path id="Stroke_318" data-name="Stroke 318" d="M12.85,1C5.539,1,1,6.439,1,13.5c0,3.882,2.785,7.339,5.417,9.63C7.535,24.1,7.7,25.518,7.7,27v.261a.592.592,0,0,0,.575.607h9.136a.592.592,0,0,0,.575-.607V27c0-1.485.167-2.9,1.286-3.873C21.9,20.836,24.7,17.368,24.7,13.488,24.7,6.428,20.164,1,12.85,1Z" transform="translate(-2321 4557)" fill="none" stroke="#fff" stroke-width="2" fill-rule="evenodd"/>
    <path id="Stroke_319" data-name="Stroke 319" d="M7.507,7.043h-2.3A3.994,3.994,0,0,1,1.213,3.049,1.149,1.149,0,0,1,2.364,1.9H10.35A1.149,1.149,0,0,1,11.5,3.049,3.994,3.994,0,0,1,7.507,7.043Z" transform="translate(-2314.784 4586.957)" fill="none" stroke="#fff" stroke-width="1.974" fill-rule="evenodd"/>
    <g id="Grupo_1384" data-name="Grupo 1384" transform="translate(-298 491)">
      <rect id="Ret창ngulo_1979" data-name="Ret창ngulo 1979" width="3" height="11" rx="1.5" transform="translate(-2015.01 4075.318) rotate(-45)" fill="#fff"/>
      <rect id="Ret창ngulo_1980" data-name="Ret창ngulo 1980" width="3" height="11" rx="1.5" transform="translate(-2012.889 4083.096) rotate(-135)" fill="#fff"/>
    </g>
  </g>
</svg>
