<svg width="27" height="27" viewBox="0 0 27 27" fill="none" xmlns="http://www.w3.org/2000/svg">
<path d="M21.8326 7.84445C22.1238 7.84445 22.36 7.60835 22.36 7.31709V1.58207C22.36 0.709718 21.6503 0 20.7779 0H1.58207C0.709718 0 0 0.709718 0 1.58207V25.4187C0 26.291 0.709718 27.0007 1.58207 27.0007H20.7779C21.6503 27.0007 22.36 26.291 22.36 25.4187V21.5335C22.36 21.2422 22.1238 21.0061 21.8326 21.0061C21.5414 21.0061 21.3053 21.2422 21.3053 21.5335V25.4187C21.3053 25.7094 21.0687 25.946 20.7779 25.946H1.58207C1.29129 25.946 1.05472 25.7094 1.05472 25.4187V1.58207C1.05472 1.29129 1.29129 1.05472 1.58207 1.05472H20.7779C21.0687 1.05472 21.3053 1.29129 21.3053 1.58207V7.31709C21.3053 7.60835 21.5414 7.84445 21.8326 7.84445Z" fill="white"/>
<path d="M11.18 2.84773C8.50475 2.84773 6.3283 5.02419 6.3283 7.69943C6.3283 9.08727 6.91419 10.3407 7.85141 11.2258C7.86897 11.2446 7.88764 11.2624 7.90805 11.2786C8.77139 12.0685 9.92034 12.5511 11.1799 12.5511C12.4395 12.5511 13.5885 12.0684 14.4518 11.2786C14.4722 11.2624 14.4909 11.2445 14.5085 11.2258C15.4458 10.3407 16.0317 9.08727 16.0317 7.69943C16.0317 5.02419 13.8552 2.84773 11.18 2.84773ZM11.18 11.4964C10.3189 11.4964 9.52414 11.2078 8.88646 10.7229C9.34995 9.90099 10.2149 9.38697 11.18 9.38697C12.1451 9.38697 13.01 9.90099 13.4735 10.7229C12.8358 11.2078 12.0411 11.4964 11.18 11.4964ZM10.3362 7.48848V7.1457C10.3362 6.68046 10.7148 6.30193 11.18 6.30193C11.6452 6.30193 12.0238 6.68046 12.0238 7.1457V7.48848C12.0238 7.95372 11.6452 8.33226 11.18 8.33226C10.7148 8.33226 10.3362 7.95372 10.3362 7.48848ZM14.2355 9.95035C13.8466 9.37352 13.3076 8.9249 12.6817 8.64793C12.9301 8.32693 13.0785 7.92482 13.0785 7.48848V7.1457C13.0785 6.09884 12.2268 5.24721 11.18 5.24721C10.1331 5.24721 9.2815 6.09884 9.2815 7.1457V7.48848C9.2815 7.92482 9.42984 8.32693 9.67823 8.64793C9.05241 8.9249 8.5134 9.37352 8.12448 9.95035C7.65887 9.32 7.38301 8.54146 7.38301 7.69943C7.38301 5.60576 9.08632 3.90245 11.18 3.90245C13.2737 3.90245 14.977 5.60576 14.977 7.69943C14.977 8.54146 14.7011 9.32 14.2355 9.95035Z" fill="white"/>
<path d="M14.0277 23.0983H11.18C10.8888 23.0983 10.6526 23.3344 10.6526 23.6256C10.6526 23.9169 10.8888 24.153 11.18 24.153H14.0277C14.3189 24.153 14.5551 23.9169 14.5551 23.6256C14.5551 23.3344 14.3189 23.0983 14.0277 23.0983Z" fill="white"/>
<path d="M14.0277 20.1451H6.53924C6.24803 20.1451 6.01188 20.3812 6.01188 20.6724C6.01188 20.9637 6.24803 21.1998 6.53924 21.1998H14.0277C14.3189 21.1998 14.5551 20.9637 14.5551 20.6724C14.5551 20.3812 14.3189 20.1451 14.0277 20.1451Z" fill="white"/>
<path d="M14.0277 17.1919H6.53924C6.24803 17.1919 6.01188 17.428 6.01188 17.7192C6.01188 18.0105 6.24803 18.2466 6.53924 18.2466H14.0277C14.3189 18.2466 14.5551 18.0105 14.5551 17.7192C14.5551 17.428 14.3189 17.1919 14.0277 17.1919Z" fill="white"/>
<path d="M4.65968 14.3932C4.56165 14.2951 4.42559 14.2387 4.28637 14.2387C4.14762 14.2387 4.01156 14.2951 3.91352 14.3932C3.81544 14.4913 3.75901 14.6273 3.75901 14.766C3.75901 14.9047 3.81538 15.0408 3.91352 15.1389C4.01214 15.237 4.14762 15.2934 4.28637 15.2934C4.42559 15.2934 4.56112 15.237 4.65968 15.1389C4.75777 15.0408 4.81425 14.9047 4.81425 14.766C4.81425 14.6273 4.75782 14.4913 4.65968 14.3932Z" fill="white"/>
<path d="M4.65968 17.3464C4.56112 17.2483 4.42559 17.1919 4.28637 17.1919C4.14762 17.1919 4.01214 17.2483 3.91352 17.3464C3.81544 17.4445 3.75901 17.5805 3.75901 17.7192C3.75901 17.8579 3.81538 17.994 3.91352 18.0921C4.01214 18.1902 4.14762 18.2466 4.28637 18.2466C4.42559 18.2466 4.56112 18.1902 4.65968 18.0921C4.75777 17.994 4.81425 17.8579 4.81425 17.7192C4.81425 17.5805 4.75782 17.4445 4.65968 17.3464Z" fill="white"/>
<path d="M4.65968 20.2996C4.56112 20.2015 4.42559 20.1451 4.28637 20.1451C4.14762 20.1451 4.01214 20.2015 3.91352 20.2996C3.81544 20.3977 3.75901 20.5337 3.75901 20.6724C3.75901 20.8111 3.81538 20.9472 3.91352 21.0453C4.01156 21.1434 4.14762 21.1998 4.28637 21.1998C4.42559 21.1998 4.56165 21.1434 4.65968 21.0453C4.75777 20.9472 4.81425 20.8111 4.81425 20.6724C4.81425 20.5337 4.75782 20.3977 4.65968 20.2996Z" fill="white"/>
<path d="M14.0277 14.2387H6.53924C6.24803 14.2387 6.01188 14.4748 6.01188 14.766C6.01188 15.0573 6.24803 15.2934 6.53924 15.2934H14.0277C14.3189 15.2934 14.5551 15.0573 14.5551 14.766C14.5551 14.4748 14.3189 14.2387 14.0277 14.2387Z" fill="white"/>
<path d="M25.893 6.87253C25.3807 6.57673 24.7838 6.49816 24.2123 6.65125C23.6408 6.80439 23.1631 7.17091 22.8674 7.68324L16.231 19.1777C16.1947 19.2407 16.1717 19.3106 16.1636 19.3829L15.6965 23.5672C15.6733 23.7754 15.7755 23.9776 15.9569 24.0824C16.0388 24.1296 16.1298 24.153 16.2205 24.153C16.3309 24.153 16.4408 24.1185 16.5333 24.0503L19.9234 21.5536C19.982 21.5105 20.031 21.4557 20.0673 21.3926L26.7037 9.89819C27.3143 8.84052 26.9507 7.48321 25.893 6.87253ZM16.8784 22.4862L17.1224 20.3013L18.6486 21.1825L16.8784 22.4862ZM19.4176 20.4085L17.4081 19.2484L22.7337 10.0243L24.7432 11.1845L19.4176 20.4085ZM25.7903 9.37078L25.2705 10.2711L23.261 9.11095L23.7808 8.21059C23.9357 7.94222 24.1859 7.75026 24.4852 7.67005C24.7847 7.58979 25.0973 7.63103 25.3656 7.78597C25.634 7.9409 25.8259 8.19108 25.9061 8.49041C25.9864 8.78974 25.9452 9.10241 25.7903 9.37078Z" fill="white"/>
</svg>
