<svg width="27" height="27" viewBox="0 0 27 27" fill="none" xmlns="http://www.w3.org/2000/svg">
<path fill-rule="evenodd" clip-rule="evenodd" d="M13.5 0C6.0437 0 0 6.0437 0 13.5C0 20.9551 6.0437 27 13.5 27C20.9557 27 27 20.9551 27 13.5C27 6.0437 20.9557 0 13.5 0ZM13.5 1.76052C19.9732 1.76052 25.2395 7.02675 25.2395 13.5C25.2395 19.9726 19.9732 25.2389 13.5 25.2389C7.02735 25.2389 1.76113 19.9726 1.76113 13.5C1.76113 7.02675 7.02735 1.76052 13.5 1.76052Z" fill="white"/>
<path fill-rule="evenodd" clip-rule="evenodd" d="M9.77903 18C9.47867 18 9.17831 17.7973 9.04327 17.389C8.9375 17.0691 9.03403 16.7038 9.24146 16.4611L12.4597 12.6986V4.89682C12.4597 4.40178 12.8047 4 13.2298 4C13.6555 4 14 4.40178 14 4.89682V13.4394L10.3248 17.7357C10.1744 17.9115 9.9767 18 9.77903 18Z" fill="white"/>
</svg>
