<svg width="24" height="27" viewBox="0 0 24 27" fill="none" xmlns="http://www.w3.org/2000/svg">
<path fill-rule="evenodd" clip-rule="evenodd" d="M0.666362 26.1804H23.4258C23.7645 26.1095 24.0051 25.8085 23.9996 25.4626V0.71725C24.0122 0.334353 23.7127 0.0130905 23.3298 0C23.2278 0.008727 23.1302 0.0409078 23.0424 0.0932698L20.2001 1.33687L18.5256 0.141268C18.4078 0.069816 18.2753 0.0332717 18.1427 0.0332717C18.0102 0.0332717 17.8776 0.069816 17.7598 0.141268L16.1328 1.28941L14.5063 0.141268C14.3977 0.0692705 14.2723 0.0332717 14.1479 0.0332717C14.0225 0.0332717 13.8976 0.0692705 13.789 0.141268L11.7802 1.33687L9.77135 0.141268C9.66226 0.069816 9.53735 0.0338171 9.41245 0.0338171C9.28754 0.0338171 9.16264 0.069816 9.05355 0.141268L7.42706 1.28941L5.80056 0.141268C5.68275 0.069816 5.55021 0.0332717 5.41767 0.0332717C5.28512 0.0332717 5.15258 0.069816 5.03477 0.141268L3.35973 1.33687L1.0029 0.0932698C0.902536 0.0370897 0.792903 0.0109087 0.685452 0.0109087C0.453641 0.0109087 0.228921 0.133632 0.10947 0.350716C0.104016 0.360534 0.0985616 0.370352 0.0936527 0.38017C0.0347454 0.482712 0.00256463 0.597799 0.000382885 0.715068V25.4626C-0.0121622 25.8444 0.285101 26.1646 0.666362 26.1804ZM1.63674 24.5442V2.18621L3.27196 3.27327L5.42098 1.8764L7.49855 3.27327L9.45776 1.85895L11.7251 3.27327L14.1027 1.85895L15.9517 3.27327L18.1395 1.8764L20.1783 3.27327L22.3634 2.16003V24.5442H1.63674Z" fill="white"/>
<path fill-rule="evenodd" clip-rule="evenodd" d="M16.6362 7.40218H7.36381C6.91164 7.40218 6.54565 7.03619 6.54565 6.58402C6.54565 6.1324 6.91164 5.76587 7.36381 5.76587H16.6362C17.0879 5.76587 17.4544 6.1324 17.4544 6.58402C17.4544 7.03619 17.0879 7.40218 16.6362 7.40218Z" fill="white"/>
<path fill-rule="evenodd" clip-rule="evenodd" d="M16.6362 10.6745H7.36381C6.91164 10.6745 6.54565 10.308 6.54565 9.85636C6.54565 9.4042 6.91164 9.03821 7.36381 9.03821H16.6362C17.0879 9.03821 17.4544 9.4042 17.4544 9.85636C17.4544 10.308 17.0879 10.6745 16.6362 10.6745Z" fill="white"/>
<path fill-rule="evenodd" clip-rule="evenodd" d="M16.6362 13.9473H7.36381C6.91164 13.9473 6.54565 13.5808 6.54565 13.1292C6.54565 12.677 6.91164 12.311 7.36381 12.311H16.6362C17.0879 12.311 17.4544 12.677 17.4544 13.1292C17.4544 13.5808 17.0879 13.9473 16.6362 13.9473Z" fill="white"/>
<path fill-rule="evenodd" clip-rule="evenodd" d="M12.2951 23.0871C12.2176 23.0871 12.138 23.0756 12.06 23.0522C11.6275 22.9229 11.3815 22.4669 11.5113 22.0338L12.2716 19.9159H10.8879C10.6315 19.9159 10.3899 19.7959 10.235 19.5914C10.0806 19.3868 10.031 19.1212 10.1008 18.8741L10.9948 16.1404C11.118 15.7057 11.5713 15.4531 12.0049 15.5764C12.4396 15.7002 12.6922 16.1524 12.5684 16.5871L11.9711 18.2796H13.3712C13.6303 18.2796 13.8736 18.4018 14.0274 18.6096C14.1818 18.8168 14.2292 19.0852 14.155 19.3328L13.0789 22.504C12.9725 22.858 12.6475 23.0871 12.2951 23.0871Z" fill="white"/>
</svg>
