<svg xmlns="http://www.w3.org/2000/svg" width="27" height="31" viewBox="0 0 27 31">
  <g id="Leitura" transform="translate(2047 -4028)">
    <g id="icon-historico" transform="translate(-2047 4028)">
      <path id="Caminho_2151" data-name="Caminho 2151" d="M13.5,0A13.5,13.5,0,1,0,27,13.5,13.5,13.5,0,0,0,13.5,0Zm0,1.761A11.739,11.739,0,1,1,1.761,13.5,11.753,11.753,0,0,1,13.5,1.761Z" fill="#fff" fill-rule="evenodd"/>
      <path id="Fill_320" data-name="Fill 320" d="M5.6,4.372a1.006,1.006,0,0,0-.8-.405H3.329l.7-1.811A1,1,0,0,0,2.581,1.006a.987.987,0,0,0-.474.595L1.019,4.692a1,1,0,0,0,.964,1.276H3.434L2.54,8.26a.984.984,0,0,0,.076.762,1.006,1.006,0,0,0,1.842-.18l1.3-3.587A1.006,1.006,0,0,0,5.6,4.372Z" transform="translate(10.02 14.254)" fill="#fff" fill-rule="evenodd"/>
      <g id="Retângulo_1977" data-name="Retângulo 1977" transform="translate(4 7)" fill="none" stroke="#fff" stroke-width="1.5">
        <rect width="19" height="7" stroke="none"/>
        <rect x="0.75" y="0.75" width="17.5" height="5.5" fill="none"/>
      </g>
    </g>
    <g id="Subtração_1" data-name="Subtração 1" transform="translate(-2047 4026)" fill="none">
      <path d="M22,33H5a1,1,0,0,1-1-1v-8.91a12.2,12.2,0,0,0,9.5,4.9,12.2,12.2,0,0,0,9.5-4.9V32A1,1,0,0,1,22,33Z" stroke="none"/>
      <path d="M 21.50039863586426 31.50029754638672 L 21.50039863586426 26.66839599609375 C 19.13140106201172 28.50526809692383 16.38054084777832 29.48819732666016 13.49999904632568 29.48819732666016 C 10.61944961547852 29.48819732666016 7.868597507476807 28.50527954101563 5.499598979949951 26.66840744018555 L 5.499598979949951 31.50029754638672 L 21.50039863586426 31.50029754638672 M 21.99959945678711 33.00029754638672 L 5.000399112701416 33.00029754638672 C 4.448559284210205 33.00029754638672 3.999598979949951 32.5517463684082 3.999598979949951 32.00039672851563 L 3.999598979949951 23.09085845947266 C 6.544188976287842 26.24873733520508 9.917529106140137 27.98819732666016 13.49999904632568 27.98819732666016 C 17.08163833618164 27.98819732666016 20.45561981201172 26.24895858764648 23.00039863586426 23.09085845947266 L 23.00039863586426 32.00039672851563 C 23.00039863586426 32.5517463684082 22.55143928527832 33.00029754638672 21.99959945678711 33.00029754638672 Z" stroke="none" fill="#fff"/>
    </g>
  </g>
</svg>
