<svg xmlns="http://www.w3.org/2000/svg" width="32.615" height="31" viewBox="0 0 32.615 31">
  <g id="gerenciarIM" transform="translate(0 -12.676)">
    <g id="Grupo_1383" data-name="Grupo 1383" transform="translate(0 12.676)">
      <path id="Caminho_2152" data-name="Caminho 2152" d="M32.067,26.448l-2.755-2.511V15.613a.959.959,0,0,0-.959-.959H21.721a.959.959,0,0,0-.959.959v.533l-3.328-3.032a1.665,1.665,0,0,0-2.253,0L.548,26.448a1.672,1.672,0,0,0,1.127,2.909H4.012v13.36a.959.959,0,0,0,.959.959h8.021a.959.959,0,0,0,.959-.959V34.605h4.714v8.112a.959.959,0,0,0,.959.959h8.021a.959.959,0,0,0,.959-.959V29.357h2.338a1.672,1.672,0,0,0,1.126-2.909Zm-4.423.99a.959.959,0,0,0-.959.959v13.36h-6.1V33.646a.959.959,0,0,0-.959-.959H12.992a.959.959,0,0,0-.959.959v8.112H5.93V28.4a.959.959,0,0,0-.959-.959H2.309l14-12.756,4.767,4.344a.959.959,0,0,0,1.605-.709V16.572h4.714v7.789a.959.959,0,0,0,.313.709l2.6,2.368H27.644Z" transform="translate(0 -12.675)" fill="#fff"/>
    </g>
  </g>
</svg>
