<svg width="20" height="28" viewBox="0 0 20 28" fill="none" xmlns="http://www.w3.org/2000/svg">
<path fill-rule="evenodd" clip-rule="evenodd" d="M13.9388 3.79635L16.9499 6.78012H13.9388V3.79635ZM1.81828 2.53721H12.1215V7.68925C12.1215 8.19019 12.5278 8.59839 13.0297 8.59839H18.1817V26.1737H1.81828V2.53721ZM0.813688 0.718944C0.350031 0.767128 -0.00271169 1.16078 1.57086e-05 1.62808V27.0828C1.57086e-05 27.5847 0.406398 27.992 0.909147 27.992H19.0909C19.5927 27.992 20 27.5847 20 27.0828V7.61289C19.9982 7.37015 19.8991 7.13832 19.7245 6.96922L13.6643 0.98441C13.4961 0.816221 13.2688 0.720762 13.0297 0.718944H0.909147C0.877328 0.718034 0.846417 0.718034 0.813688 0.718944Z" fill="white"/>
<path fill-rule="evenodd" clip-rule="evenodd" d="M3.85469 10.643C3.47922 10.663 3.19012 10.9858 3.20921 11.3612C3.22921 11.7376 3.55377 12.0258 3.92743 12.0076H6.38026C6.77392 12.0231 7.07029 11.7112 7.07575 11.3349C7.07847 11.1521 7.01029 10.9812 6.88301 10.8494C6.75664 10.7194 6.58573 10.6457 6.40299 10.6439H3.93924C3.90379 10.6421 3.88015 10.6421 3.85469 10.643Z" fill="white"/>
<path fill-rule="evenodd" clip-rule="evenodd" d="M3.20926 14.9978C3.22927 15.3741 3.55383 15.6614 3.92748 15.6441H16.0289C16.0326 15.6441 16.0362 15.6441 16.0389 15.6441C16.2208 15.6441 16.388 15.5751 16.5162 15.4514C16.6471 15.3232 16.7208 15.1532 16.7226 14.9714C16.728 14.595 16.4271 14.285 16.0507 14.2804H3.9393C3.9193 14.2795 3.90475 14.2786 3.89111 14.2786C3.87929 14.2786 3.86838 14.2795 3.85657 14.2795C3.48109 14.2995 3.19017 14.6214 3.20926 14.9978Z" fill="white"/>
<path fill-rule="evenodd" clip-rule="evenodd" d="M3.85469 17.9161C3.47922 17.9361 3.19012 18.2579 3.20921 18.6343C3.22921 19.0107 3.55377 19.2971 3.92743 19.2807L9.99951 19.2798C10.3959 19.2943 10.6895 18.9834 10.695 18.607C10.6977 18.4252 10.6286 18.2534 10.5023 18.1225C10.375 17.9924 10.205 17.9179 10.0213 17.9161H3.93924C3.90379 17.9143 3.88015 17.9143 3.85469 17.9161Z" fill="white"/>
<path fill-rule="evenodd" clip-rule="evenodd" d="M3.20926 7.96745C3.22927 8.34383 3.55383 8.63384 3.92748 8.61384H9.07771C9.08134 8.61384 9.08498 8.61384 9.08771 8.61384C9.26954 8.61384 9.43772 8.54565 9.565 8.4211C9.69683 8.29382 9.76956 8.12382 9.77228 7.94199C9.77774 7.56561 9.47682 7.2556 9.10044 7.25014H3.9393C3.9193 7.24923 3.90475 7.24923 3.89111 7.24923C3.87929 7.24923 3.86838 7.24923 3.85657 7.25014C3.48109 7.27014 3.19017 7.59107 3.20926 7.96745Z" fill="white"/>
<path fill-rule="evenodd" clip-rule="evenodd" d="M3.20926 22.2708C3.22927 22.6472 3.55383 22.9327 3.92748 22.9172L9.99957 22.9163C10.3959 22.9354 10.6896 22.6199 10.6951 22.2435C10.6978 22.0617 10.6287 21.8899 10.5023 21.759C10.375 21.629 10.205 21.5544 10.0214 21.5526H3.9393C3.9193 21.5517 3.90475 21.5517 3.89111 21.5517C3.87929 21.5517 3.86838 21.5517 3.85657 21.5526C3.48109 21.5717 3.19017 21.8944 3.20926 22.2708Z" fill="white"/>
<path fill-rule="evenodd" clip-rule="evenodd" d="M16.0507 10.6439H9.19405C9.1586 10.6421 9.13678 10.6421 9.1095 10.643C8.73403 10.663 8.44493 10.9858 8.46402 11.3612C8.48402 11.7376 8.81585 12.0258 9.18314 12.0076H16.0289C16.0325 12.0076 16.0362 12.0076 16.0389 12.0076C16.2207 12.0076 16.388 11.9385 16.5162 11.8149C16.6471 11.6867 16.7208 11.5167 16.7226 11.3349C16.728 10.9585 16.4271 10.6485 16.0507 10.6439Z" fill="white"/>
<path fill-rule="evenodd" clip-rule="evenodd" d="M14.4224 24.1818C14.4861 24.2018 14.5534 24.2109 14.6215 24.2109C14.9243 24.2109 15.1979 24.0082 15.2843 23.7163L16.3153 20.8571C16.378 20.648 16.338 20.4189 16.2071 20.2453C16.078 20.0698 15.8707 19.9643 15.6525 19.9643H14.3288L14.9434 18.3806C14.9943 18.2033 14.9725 18.0161 14.8825 17.8542C14.7915 17.6924 14.6443 17.576 14.467 17.5251C14.4043 17.507 14.3397 17.4988 14.2761 17.4988C14.1606 17.4988 14.0452 17.5279 13.9406 17.586C13.7788 17.677 13.6615 17.8242 13.6115 18.0024L12.7442 20.4689C12.686 20.6771 12.7287 20.9035 12.8587 21.0753C12.9887 21.248 13.196 21.3508 13.4115 21.3508H14.7206L14.7034 21.4089L13.957 23.3199C13.9042 23.4963 13.9233 23.6836 14.0115 23.8472C14.0988 24.01 14.2452 24.1291 14.4224 24.1818Z" fill="white"/>
</svg>
