<svg xmlns="http://www.w3.org/2000/svg" width="25.701" height="37.987" viewBox="0 0 25.701 37.987">
  <g id="light" transform="translate(2321 -4557)">
    <path id="Fill_320" data-name="Fill 320" d="M6.5,5.06a1.2,1.2,0,0,0-.96-.485H3.785l.842-2.168A1.2,1.2,0,0,0,2.892,1.031a1.181,1.181,0,0,0-.566.712l-1.3,3.7A1.2,1.2,0,0,0,2.177,6.971H3.911L2.843,9.714a1.18,1.18,0,0,0,.091.912,1.2,1.2,0,0,0,2.2-.216L6.682,6.116A1.207,1.207,0,0,0,6.5,5.06Z" transform="translate(-2311.98 4563.547)" fill="#fff" fill-rule="evenodd"/>
    <path id="Stroke_318" data-name="Stroke 318" d="M12.85,1C5.539.995,1,6.439,1,13.5c0,3.882,2.785,7.339,5.417,9.63C7.535,24.105,7.7,25.518,7.7,27v.261a.592.592,0,0,0,.575.607h9.136a.592.592,0,0,0,.575-.607V27c0-1.485.167-2.9,1.286-3.873,2.632-2.291,5.427-5.759,5.427-9.639C24.7,6.428,20.164.995,12.85,1Z" transform="translate(-2321 4557)" fill="none" stroke="#fff" stroke-width="2" fill-rule="evenodd"/>
    <path id="Stroke_319" data-name="Stroke 319" d="M7.507,7.043h-2.3A3.994,3.994,0,0,1,1.213,3.049,1.149,1.149,0,0,1,2.364,1.9h7.986A1.149,1.149,0,0,1,11.5,3.049,3.994,3.994,0,0,1,7.507,7.043Z" transform="translate(-2314.784 4586.957)" fill="none" stroke="#fff" stroke-width="1.974" fill-rule="evenodd"/>
  </g>
</svg>
