<svg id="Vector" xmlns="http://www.w3.org/2000/svg" width="46.675" height="50.916" viewBox="0 0 46.675 50.916">
  <path id="Caminho_2151" data-name="Caminho 2151" d="M1.3,50.916H45.559a1.4,1.4,0,0,0,1.116-1.4V1.395A1.35,1.35,0,0,0,45.372,0a1.307,1.307,0,0,0-.559.181L39.285,2.6,36.029.275a1.425,1.425,0,0,0-1.489,0L31.375,2.508,28.212.275a1.263,1.263,0,0,0-1.395,0L22.91,2.6,19,.275a1.27,1.27,0,0,0-1.4,0L14.444,2.508,11.281.275a1.425,1.425,0,0,0-1.489,0L6.534,2.6,1.95.181a1.262,1.262,0,0,0-.617-.16A1.277,1.277,0,0,0,.213.682C.2.7.192.72.182.739A1.358,1.358,0,0,0,0,1.391V49.52A1.352,1.352,0,0,0,1.3,50.916Zm1.887-3.182V4.252l3.18,2.114,4.179-2.717,4.04,2.717,3.81-2.751L22.8,6.366l4.624-2.751,3.6,2.751,4.255-2.717,3.965,2.717L43.492,4.2V47.734Z" transform="translate(0)" fill="#fff" fill-rule="evenodd"/>
  <path id="Caminho_2152" data-name="Caminho 2152" d="M27.534,10.149H9.5a1.591,1.591,0,1,1,0-3.182H27.534a1.591,1.591,0,0,1,0,3.182Z" transform="translate(4.821 4.246)" fill="#fff" fill-rule="evenodd"/>
  <path id="Caminho_2153" data-name="Caminho 2153" d="M27.534,14.1H9.5a1.591,1.591,0,1,1,0-3.182H27.534a1.591,1.591,0,0,1,0,3.182Z" transform="translate(4.821 6.657)" fill="#fff" fill-rule="evenodd"/>
  <path id="Caminho_2154" data-name="Caminho 2154" d="M27.534,18.058H9.5a1.591,1.591,0,1,1,0-3.182H27.534a1.591,1.591,0,0,1,0,3.182Z" transform="translate(4.821 9.067)" fill="#fff" fill-rule="evenodd"/>
  <path id="Caminho_2155" data-name="Caminho 2155" d="M16.5,33.452A1.594,1.594,0,0,1,14.971,31.4l1.479-4.119H13.759a1.59,1.59,0,0,1-1.531-2.026l1.739-5.317a1.591,1.591,0,1,1,3.06.869L15.865,24.1h2.723a1.592,1.592,0,0,1,1.524,2.048L18.02,32.318A1.593,1.593,0,0,1,16.5,33.452Z" transform="translate(7.416 11.449)" fill="#fff" fill-rule="evenodd"/>
</svg>
