<svg xmlns="http://www.w3.org/2000/svg" width="97" height="97" viewBox="0 0 97 97">
  <g id="ad-solicitacao" transform="translate(-1040 -4442)">
    <rect id="Retângulo_114" data-name="Retângulo 114" width="97" height="97" rx="21" transform="translate(1040 4442)" fill="#04a6a6"/>
    <g id="Grupo_1388" data-name="Grupo 1388" transform="translate(2927 218.378)">
      <g id="Retângulo_1998" data-name="Retângulo 1998" transform="translate(-1862 4252.622)" fill="none" stroke="#fff" stroke-width="3">
        <rect width="47" height="45" rx="1" stroke="none"/>
        <rect x="1.5" y="1.5" width="44" height="42" rx="0.5" fill="none"/>
      </g>
      <g id="Retângulo_1999" data-name="Retângulo 1999" transform="translate(-1862 4252.622)" fill="none" stroke="#fff" stroke-width="3">
        <rect width="47" height="14" rx="1" stroke="none"/>
        <rect x="1.5" y="1.5" width="44" height="11" rx="0.5" fill="none"/>
      </g>
      <g id="Retângulo_2000" data-name="Retângulo 2000" transform="translate(-1855 4271.622)" fill="none" stroke="#fff" stroke-width="1.5">
        <rect width="9" height="8" rx="1" stroke="none"/>
        <rect x="0.75" y="0.75" width="7.5" height="6.5" rx="0.25" fill="none"/>
      </g>
      <g id="Retângulo_2001" data-name="Retângulo 2001" transform="translate(-1843 4271.622)" fill="none" stroke="#fff" stroke-width="1.5">
        <rect width="9" height="8" rx="1" stroke="none"/>
        <rect x="0.75" y="0.75" width="7.5" height="6.5" rx="0.25" fill="none"/>
      </g>
      <g id="Retângulo_2002" data-name="Retângulo 2002" transform="translate(-1831 4271.622)" fill="none" stroke="#fff" stroke-width="1.5">
        <rect width="8" height="8" rx="1" stroke="none"/>
        <rect x="0.75" y="0.75" width="6.5" height="6.5" rx="0.25" fill="none"/>
      </g>
      <g id="Retângulo_2003" data-name="Retângulo 2003" transform="translate(-1831 4282.622)" fill="none" stroke="#fff" stroke-width="1.5">
        <rect width="8" height="9" rx="1" stroke="none"/>
        <rect x="0.75" y="0.75" width="6.5" height="7.5" rx="0.25" fill="none"/>
      </g>
      <g id="Retângulo_2004" data-name="Retângulo 2004" transform="translate(-1843 4282.622)" fill="none" stroke="#fff" stroke-width="1.5">
        <rect width="9" height="9" rx="1" stroke="none"/>
        <rect x="0.75" y="0.75" width="7.5" height="7.5" rx="0.25" fill="none"/>
      </g>
      <g id="Retângulo_2005" data-name="Retângulo 2005" transform="translate(-1855 4282.622)" fill="none" stroke="#fff" stroke-width="1.5">
        <rect width="9" height="9" rx="1" stroke="none"/>
        <rect x="0.75" y="0.75" width="7.5" height="7.5" rx="0.25" fill="none"/>
      </g>
      <rect id="Retângulo_2006" data-name="Retângulo 2006" width="3" height="14" rx="1" transform="translate(-1850 4247.622)" fill="#fff"/>
      <rect id="Retângulo_2007" data-name="Retângulo 2007" width="3" height="14" rx="1" transform="translate(-1830 4247.622)" fill="#fff"/>
    </g>
  </g>
</svg>
