<svg xmlns="http://www.w3.org/2000/svg" width="97" height="97" viewBox="0 0 97 97">
  <g id="c-contato" transform="translate(2661 -5187)">
    <rect id="Retângulo_117" data-name="Retângulo 117" width="97" height="97" rx="21" transform="translate(-2661 5187)" fill="#976dd0"/>
    <g id="Grupo_1395" data-name="Grupo 1395" transform="translate(-860 962)">
      <rect id="Retângulo_1995" data-name="Retângulo 1995" width="21.893" height="3.022" rx="1.511" transform="translate(-1763.811 4264.117)" fill="#fff"/>
      <rect id="Retângulo_1996" data-name="Retângulo 1996" width="21.893" height="3.022" rx="1.511" transform="translate(-1763.811 4272.176)" fill="#fff"/>
      <rect id="Retângulo_1997" data-name="Retângulo 1997" width="21.893" height="3.022" rx="1.511" transform="translate(-1763.811 4280.234)" fill="#fff"/>
      <g id="Grupo_1387" data-name="Grupo 1387" transform="translate(-1778.085 4248)">
        <g id="Caminho_2175" data-name="Caminho 2175" transform="translate(0.085)" fill="none">
          <path d="M25.269,0a25.183,25.183,0,1,1,0,50.366c-3.7,0-7.472-1.159-11.771-3.259-.048-.017-1.849,2.186-6.472,2.606s-7.912.168-6.94-1.765,7.378-5.906,6.519-6.725C2.231,37.069.086,32.36.086,25.183A25.183,25.183,0,0,1,25.269,0Z" stroke="none"/>
          <path d="M 25.26922416687012 2.000003814697266 C 22.13863372802734 2.000003814697266 19.10275459289551 2.612682342529297 16.24591445922852 3.821033477783203 C 13.48551559448242 4.988574981689453 11.00600433349609 6.660442352294922 8.876262664794922 8.790191650390625 C 6.746513366699219 10.9199333190918 5.074642181396484 13.39944458007813 3.9071044921875 16.15984344482422 C 2.698753356933594 19.01668357849121 2.086074829101563 22.05256271362305 2.086074829101563 25.18315315246582 C 2.086074829101563 28.46321296691895 2.565273284912109 31.20523262023926 3.551063537597656 33.56588363647461 C 4.494472503662109 35.82505416870117 5.902702331542969 37.79760360717773 7.986274719238281 39.7768440246582 C 8.452304840087891 40.22163391113281 8.706172943115234 40.84867095947266 8.682792663574219 41.49717330932617 C 8.631935119628906 42.90767288208008 7.498085021972656 43.90115356445313 4.93829345703125 46.01383209228516 C 4.214954376220703 46.61083221435547 3.466983795166016 47.22815322875977 2.865303039550781 47.78280258178711 C 2.836616516113281 47.80924606323242 2.808807373046875 47.83505249023438 2.781711578369141 47.86035919189453 C 3.046165466308594 47.87659072875977 3.358894348144531 47.88676452636719 3.72723388671875 47.88676452636719 C 4.587635040283203 47.88676452636719 5.636512756347656 47.83110427856445 6.844722747802734 47.72133255004883 C 9.04803466796875 47.52113342285156 10.89289474487305 46.81282424926758 12.03946304321289 45.72688293457031 C 12.21841430664063 45.55739212036133 12.69377517700195 45.10716247558594 13.4972038269043 45.10716247558594 L 13.82238388061523 45.10725402832031 L 14.13028335571289 45.20988464355469 L 14.25633239746094 45.25190353393555 L 14.37572479248047 45.31023406982422 C 18.64358329772949 47.39521408081055 22.10507392883301 48.36630249023438 25.26922416687012 48.36630249023438 C 28.39981460571289 48.36630249023438 31.43569374084473 47.75362396240234 34.29254150390625 46.54527282714844 C 37.05294418334961 45.37773132324219 39.53245544433594 43.70586395263672 41.66219329833984 41.57611083984375 C 43.79194259643555 39.44637298583984 45.46381378173828 36.96686172485352 46.63135528564453 34.20646286010742 C 47.83970260620117 31.34962272644043 48.45238494873047 28.31374359130859 48.45238494873047 25.18315315246582 C 48.45238494873047 22.05256271362305 47.83970260620117 19.01668357849121 46.63135528564453 16.15984344482422 C 45.46381378173828 13.39944458007813 43.79194259643555 10.9199333190918 41.66219329833984 8.790191650390625 C 39.53245544433594 6.660442352294922 37.05294418334961 4.988574981689453 34.29254150390625 3.821033477783203 C 31.43569374084473 2.612682342529297 28.39981460571289 2.000003814697266 25.26922416687012 2.000003814697266 M 25.26922416687012 3.814697265625e-06 C 39.17750549316406 3.814697265625e-06 50.45238494873047 11.27488327026367 50.45238494873047 25.18315315246582 C 50.45238494873047 39.09142303466797 39.17750549316406 50.36630249023438 25.26922416687012 50.36630249023438 C 21.57231330871582 50.36630249023438 17.79742431640625 49.20774459838867 13.49782180786133 47.10725402832031 C 13.49764251708984 47.10719299316406 13.4974365234375 47.10715866088867 13.49720764160156 47.10715866088867 C 13.4359245300293 47.10715866088867 11.63147354125977 49.29463577270508 7.025703430175781 49.7131233215332 C 5.817756652832031 49.8228759765625 4.700775146484375 49.88676452636719 3.727237701416016 49.88676452636719 C 0.9749107360839844 49.88676452636719 -0.6318855285644531 49.37625503540039 0.0860748291015625 47.94833374023438 C 1.0579833984375 46.01533508300781 7.46368408203125 42.04279327392578 6.605415344238281 41.2236442565918 C 2.231472015380859 37.0687141418457 0.0860748291015625 32.35986328125 0.0860748291015625 25.18315315246582 C 0.0860748291015625 11.27488327026367 11.36095428466797 3.814697265625e-06 25.26922416687012 3.814697265625e-06 Z" stroke="none" fill="#fff"/>
        </g>
      </g>
    </g>
  </g>
</svg>
