<svg xmlns="http://www.w3.org/2000/svg" width="97" height="97" viewBox="0 0 97 97">
  <g id="icone-faturas" transform="translate(-204 -4183)">
    <rect id="Retângulo_112" data-name="Retângulo 112" width="97" height="97" rx="21" transform="translate(204 4183)" fill="#77c65b"/>
    <g id="Grupo_1384" data-name="Grupo 1384" transform="translate(1899 -41)">
      <g id="Caminho_2169" data-name="Caminho 2169" transform="translate(-1665 4248)" fill="none">
        <path d="M0,0H24.6L36.111,12.327V50H0Z" stroke="none"/>
        <path d="M 2 1.999992370605469 L 2 48.00048446655273 L 34.1114616394043 48.00048446655273 L 34.1114616394043 13.11501693725586 L 23.73446655273438 1.999992370605469 L 2 1.999992370605469 M 0 -7.62939453125e-06 L 24.6034107208252 -7.62939453125e-06 L 36.1114616394043 12.32651519775391 L 36.1114616394043 50.00048446655273 L 0 50.00048446655273 L 0 -7.62939453125e-06 Z" stroke="none" fill="#fff"/>
      </g>
      <g id="Caminho_2173" data-name="Caminho 2173" transform="matrix(-0.682, -0.731, 0.731, -0.682, -1636.272, 4268.052)" fill="none">
        <path d="M9.336,0l8.41,10L0,10.012Z" stroke="none"/>
        <path d="M 9.258650779724121 3.015476703643799 L 4.602390289306641 8.00870418548584 L 13.45306396484375 8.003132820129395 L 9.258650779724121 3.015476703643799 M 9.335966110229492 1.9073486328125e-06 L 17.74591636657715 10.00043201446533 L -3.814697265625e-06 10.01160144805908 L 9.335966110229492 1.9073486328125e-06 Z" stroke="none" fill="#fff"/>
      </g>
      <rect id="Retângulo_1988" data-name="Retângulo 1988" width="8.333" height="2.083" rx="1.042" transform="translate(-1656.667 4273)" fill="#fff"/>
      <rect id="Retângulo_1989" data-name="Retângulo 1989" width="8.333" height="2.083" rx="1.042" transform="translate(-1645.555 4273)" fill="#fff"/>
      <rect id="Retângulo_1990" data-name="Retângulo 1990" width="8.333" height="2.083" rx="1.042" transform="translate(-1645.555 4277.167)" fill="#fff"/>
      <rect id="Retângulo_1991" data-name="Retângulo 1991" width="8.333" height="2.083" rx="1.042" transform="translate(-1656.667 4277.167)" fill="#fff"/>
      <rect id="Retângulo_1992" data-name="Retângulo 1992" width="19.445" height="2.083" rx="1.042" transform="translate(-1656.667 4281.333)" fill="#fff"/>
      <rect id="Retângulo_1993" data-name="Retângulo 1993" width="19.445" height="2.083" rx="1.042" transform="translate(-1656.667 4285.5)" fill="#fff"/>
      <path id="Icon_material-attach-money" data-name="Icon material-attach-money" d="M13.173,10.364c-1.53-.438-2.022-.891-2.022-1.6,0-.809.681-1.373,1.819-1.373a1.467,1.467,0,0,1,1.685,1.559h1.489a2.9,2.9,0,0,0-2.163-2.828V4.5H11.96V6.1A2.79,2.79,0,0,0,9.6,8.783c0,1.715,1.287,2.568,3.167,3.066,1.685.445,2.022,1.1,2.022,1.789,0,.512-.33,1.329-1.819,1.329-1.388,0-1.934-.683-2.008-1.559H9.48a2.992,2.992,0,0,0,2.48,2.843v1.611h2.022v-1.6A2.641,2.641,0,0,0,16.34,13.63C16.34,11.522,14.7,10.8,13.173,10.364Z" transform="translate(-1666.147 4250.603)" fill="#fff"/>
    </g>
  </g>
</svg>
