<svg xmlns="http://www.w3.org/2000/svg" width="97" height="97" viewBox="0 0 97 97">
  <g id="g-imovel" transform="translate(-204 -4442)">
    <rect id="Retângulo_115" data-name="Retângulo 115" width="97" height="97" rx="21" transform="translate(204 4442)" fill="#009fc2"/>
    <g id="gerenciarIM" transform="translate(225.999 4452.83)">
      <g id="Grupo_1383" data-name="Grupo 1383" transform="translate(0.001 12.676)">
        <path id="Caminho_2152" data-name="Caminho 2152" d="M52.231,35.109l-4.487-4.09V17.46A1.562,1.562,0,0,0,46.181,15.9h-10.8a1.562,1.562,0,0,0-1.562,1.562v.868L28.4,13.39a2.712,2.712,0,0,0-3.67,0L.892,35.109a2.723,2.723,0,0,0,1.836,4.738H6.534V61.608A1.562,1.562,0,0,0,8.1,63.17H21.161a1.562,1.562,0,0,0,1.562-1.562V48.395H30.4V61.608a1.562,1.562,0,0,0,1.562,1.562H45.028a1.562,1.562,0,0,0,1.562-1.562V39.847H50.4a2.723,2.723,0,0,0,1.834-4.738Zm-7.2,1.613a1.562,1.562,0,0,0-1.562,1.562V60.044H33.529V46.833a1.562,1.562,0,0,0-1.562-1.562H21.161A1.562,1.562,0,0,0,19.6,46.833V60.046H9.658V38.288A1.562,1.562,0,0,0,8.1,36.726H3.76l22.8-20.777,7.765,7.076a1.562,1.562,0,0,0,2.614-1.155V19.022h7.678V31.709a1.562,1.562,0,0,0,.51,1.155l4.235,3.857H45.026Z" transform="translate(-0.001 -12.675)" fill="#fff"/>
      </g>
    </g>
  </g>
</svg>
