<svg xmlns="http://www.w3.org/2000/svg" width="97" height="97" viewBox="0 0 97 97">
  <g id="m-titularidade" transform="translate(2661 -4928)">
    <rect id="Retângulo_115" data-name="Retângulo 115" width="97" height="97" rx="21" transform="translate(-2661 4928)" fill="#425a9a"/>
    <g id="Grupo_1394" data-name="Grupo 1394" transform="translate(-6 82)">
      <g id="Caminho_2169" data-name="Caminho 2169" transform="translate(-2625 4868)" fill="none">
        <path d="M0,0H24.979L36.663,12.515V50.764H0Z" stroke="none"/>
        <path d="M 1.999996185302734 2.000003814697266 L 1.999996185302734 48.76430130004883 L 34.66310501098633 48.76430130004883 L 34.66310501098633 13.30330276489258 L 24.11032104492188 2.000003814697266 L 1.999996185302734 2.000003814697266 M -3.814697265625e-06 3.814697265625e-06 L 24.97925567626953 3.814697265625e-06 L 36.66310501098633 12.51481246948242 L 36.66310501098633 50.76430130004883 L -3.814697265625e-06 50.76430130004883 L -3.814697265625e-06 3.814697265625e-06 Z" stroke="none" fill="#fff"/>
      </g>
      <g id="Caminho_2173" data-name="Caminho 2173" transform="matrix(-0.682, -0.731, 0.731, -0.682, -2595.834, 4888.358)" fill="none">
        <path d="M9.479,0l8.538,10.153L0,10.165Z" stroke="none"/>
        <path d="M 9.401273727416992 3.015477657318115 L 4.602395057678223 8.161643981933594 L 13.72415351867676 8.155902862548828 L 9.401273727416992 3.015477657318115 M 9.478590965270996 1.9073486328125e-06 L 18.01700019836426 10.15320110321045 L 1.9073486328125e-06 10.16454124450684 L 9.478590965270996 1.9073486328125e-06 Z" stroke="none" fill="#fff"/>
      </g>
      <rect id="Retângulo_1988" data-name="Retângulo 1988" width="12.691" height="2.115" rx="1.058" transform="translate(-2619.359 4880.691)" fill="#fff"/>
      <rect id="Retângulo_1989" data-name="Retângulo 1989" width="7.051" height="2.115" rx="1.058" transform="translate(-2619.359 4886.332)" fill="#fff"/>
      <rect id="Retângulo_1990" data-name="Retângulo 1990" width="23.972" height="2.115" rx="1.058" transform="translate(-2619.359 4891.972)" fill="#fff"/>
      <rect id="Retângulo_1991" data-name="Retângulo 1991" width="14.101" height="2.115" rx="1.058" transform="translate(-2609.489 4886.332)" fill="#fff"/>
      <rect id="Retângulo_1992" data-name="Retângulo 1992" width="14.101" height="2.115" rx="1.058" transform="translate(-2619.359 4897.613)" fill="#fff"/>
      <rect id="Retângulo_1993" data-name="Retângulo 1993" width="14.101" height="2.115" rx="1.058" transform="translate(-2619.359 4903.253)" fill="#fff"/>
      <rect id="Retângulo_1994" data-name="Retângulo 1994" width="14.101" height="2.115" rx="1.058" transform="translate(-2619.359 4908.894)" fill="#fff"/>
      <g id="Elipse_27" data-name="Elipse 27" transform="translate(-2604 4898)" fill="none" stroke="#fff" stroke-width="1">
        <circle cx="5" cy="5" r="5" stroke="none"/>
        <circle cx="5" cy="5" r="4.5" fill="none"/>
      </g>
      <g id="Caminho_2174" data-name="Caminho 2174" transform="translate(-2602.438 4906.073)" fill="none">
        <path d="M0,0A10.537,10.537,0,0,0,3.663.85,8.3,8.3,0,0,0,7.051,0V5.64L3.663,3.516,0,5.64Z" stroke="none"/>
        <path d="M 0.9999990463256836 1.417581558227539 L 0.9999990463256836 3.904382228851318 L 3.161428928375244 2.650649070739746 L 3.683388948440552 2.347889184951782 L 4.194559097290039 2.668529033660889 L 6.050599098205566 3.832763433456421 L 6.050599098205566 1.464365005493164 C 5.380475997924805 1.66941499710083 4.540977001190186 1.850099086761475 3.66317892074585 1.850099086761475 C 2.71723747253418 1.850099086761475 1.752901554107666 1.639349937438965 0.9999990463256836 1.417581558227539 M -9.5367431640625e-07 -9.5367431640625e-07 C -9.5367431640625e-07 -9.5367431640625e-07 1.900528907775879 0.8500990867614746 3.66317892074585 0.8500990867614746 C 5.42582893371582 0.8500990867614746 7.050598621368408 -9.5367431640625e-07 7.050598621368408 -9.5367431640625e-07 L 7.050598621368408 5.64047908782959 L 3.66317892074585 3.515659093856812 L -9.5367431640625e-07 5.64047908782959 L -9.5367431640625e-07 -9.5367431640625e-07 Z" stroke="none" fill="#fff"/>
      </g>
    </g>
  </g>
</svg>
